# xmcd
#
# Track frame offsets: 
#        150
#        13829
#        27350
#        44087
#        59597
#        70456
#        87103
#        102933
#        114297
#        125765
#
# Disc length: 1829 seconds
#
# Revision: 0
# Processed by: cddbd v1.5.2PL0 Copyright (c) Steve Scherf et al.
# Submitted via: ExactAudioCopy v0.99pb5
#
DISCID=8e07230a
DTITLE=Sir Douglas Quintet  - Border Wave 1981 (vinyl)  
DYEAR=1900
DGENRE=
TTITLE0=Who'll Be The Next In Line
TTITLE1=It Was Fun While It Lasted
TTITLE2=Down On The Border
TTITLE3=I Keep Wishing For You
TTITLE4=Revolutionary Ways
TTITLE5=Old Habits, Die Hard
TTITLE6=You're Gonna Miss Me
TTITLE7=Sheila Tequila
TTITLE8=Tonite, Tonite
TTITLE9=Border Wave
EXTD=
EXTT0=
EXTT1=
EXTT2=
EXTT3=
EXTT4=
EXTT5=
EXTT6=
EXTT7=
EXTT8=
EXTT9=
PLAYORDER=
